<svg width="25" height="36" viewBox="0 0 25 36" fill="none" xmlns="http://www.w3.org/2000/svg">
<path d="M24.6467 25.6215C24.6467 27.5744 24.1544 29.3056 23.1698 30.8154C22.2016 32.3087 20.7821 33.4738 18.9113 34.3108C17.0569 35.1477 14.8416 35.5662 12.2651 35.5662C9.82002 35.5662 7.58822 35.1969 5.56976 34.4585C3.5513 33.7036 1.82002 32.6287 0.375913 31.2338L2.9113 28.3785C4.14207 29.5436 5.52053 30.4379 7.04668 31.0615C8.58925 31.6687 10.3533 31.9723 12.339 31.9723C13.7503 31.9723 15.0549 31.7426 16.2528 31.2831C17.4508 30.8072 18.4108 30.1015 19.1328 29.1662C19.8549 28.2144 20.2159 27.0574 20.2159 25.6954C20.2159 24.5631 19.9944 23.6195 19.5513 22.8646C19.1246 22.1097 18.378 21.4369 17.3113 20.8462C16.2446 20.239 14.7349 19.6482 12.7821 19.0738C10.3698 18.3682 8.37591 17.6051 6.80053 16.7846C5.22514 15.9477 4.00258 14.9221 3.13284 13.7077C2.2795 12.4933 1.85284 11.0164 1.85284 9.27692C1.85284 7.60308 2.31232 6.10975 3.2313 4.79692C4.16668 3.46769 5.46309 2.43385 7.12053 1.69539C8.79437 0.940514 10.698 0.563077 12.8313 0.563077C15.0959 0.563077 17.098 0.891282 18.8375 1.54769C20.5933 2.18769 22.2016 3.14769 23.6621 4.42769L21.1513 7.20923C19.9862 6.17538 18.7062 5.4041 17.3113 4.89539C15.9164 4.38667 14.4723 4.13231 12.979 4.13231C11.7154 4.13231 10.5667 4.32103 9.53284 4.69846C8.5154 5.05949 7.70309 5.61744 7.09591 6.37231C6.50514 7.12718 6.20976 8.04615 6.20976 9.12923C6.20976 10.1303 6.47232 10.9754 6.99745 11.6646C7.52258 12.3538 8.39232 12.9856 9.60668 13.56C10.821 14.1344 12.5359 14.7497 14.7513 15.4062C16.7862 15.9969 18.5092 16.6779 19.9205 17.4492C21.3318 18.2041 22.4723 19.2462 23.3421 20.5754C24.2118 21.8882 24.6467 23.5703 24.6467 25.6215Z" fill="#FFDE7A"/>
</svg>
